/* XPM */
static char * slate32_xpm[] = {
"32 32 107 2",
"  	c None",
". 	c #1B1B1B",
"+ 	c #1A1A1A",
"@ 	c #1D1D1D",
"# 	c #171717",
"$ 	c #151515",
"% 	c #1C1C1C",
"& 	c #5C5C5C",
"* 	c #9E9E9E",
"= 	c #CACACA",
"- 	c #E2E2E2",
"; 	c #9F9F9F",
"> 	c #888888",
", 	c #FDFDFD",
"' 	c #FFFFFF",
") 	c #BDBDBD",
"! 	c #8E8E8E",
"~ 	c #767676",
"{ 	c #8D8D8D",
"] 	c #FEFEFE",
"^ 	c #393939",
"/ 	c #ECECEC",
"( 	c #F5F5F5",
"_ 	c #737373",
": 	c #222222",
"< 	c #727272",
"[ 	c #F4F4F4",
"} 	c #EDEDED",
"| 	c #3A3A3A",
"1 	c #4C4C4C",
"2 	c #AFAFAF",
"3 	c #232323",
"4 	c #242424",
"5 	c #AEAEAE",
"6 	c #4D4D4D",
"7 	c #909090",
"8 	c #191919",
"9 	c #2A2A2A",
"0 	c #3B3B3B",
"a 	c #3E3E3E",
"b 	c #353535",
"c 	c #202020",
"d 	c #1E1E1E",
"e 	c #8F8F8F",
"f 	c #797979",
"g 	c #BABABA",
"h 	c #CDCDCD",
"i 	c #CBCBCB",
"j 	c #B5B5B5",
"k 	c #313131",
"l 	c #212121",
"m 	c #ADADAD",
"n 	c #C5C5C5",
"o 	c #C4C4C4",
"p 	c #C7C7C7",
"q 	c #CCCCCC",
"r 	c #7C7C7C",
"s 	c #3C3C3C",
"t 	c #2D2D2D",
"u 	c #252525",
"v 	c #5F5F5F",
"w 	c #919191",
"x 	c #2C2C2C",
"y 	c #838383",
"z 	c #2E2E2E",
"A 	c #C3C3C3",
"B 	c #2B2B2B",
"C 	c #434343",
"D 	c #262626",
"E 	c #828282",
"F 	c #C6C6C6",
"G 	c #292929",
"H 	c #272727",
"I 	c #282828",
"J 	c #5D5D5D",
"K 	c #868686",
"L 	c #565656",
"M 	c #A6A6A6",
"N 	c #B0B0B0",
"O 	c #2F2F2F",
"P 	c #6F6F6F",
"Q 	c #676767",
"R 	c #4E4E4E",
"S 	c #757575",
"T 	c #616161",
"U 	c #8B8B8B",
"V 	c #9B9B9B",
"W 	c #6D6D6D",
"X 	c #7F7F7F",
"Y 	c #808080",
"Z 	c #575757",
"` 	c #717171",
" .	c #484848",
"..	c #5B5B5B",
"+.	c #5A5A5A",
"@.	c #303030",
"#.	c #343434",
"$.	c #D2D2D2",
"%.	c #626262",
"&.	c #818181",
"*.	c #464646",
"=.	c #4A4A4A",
"-.	c #848484",
";.	c #747474",
">.	c #7D7D7D",
",.	c #595959",
"'.	c #333333",
"                                                                ",
"                                                                ",
"                        . . . . . . . .                         ",
"                  + . . @ . # $ $ # . @ . . +                   ",
"                . % . $ & * = - - = ; & $ . % .                 ",
"              . @ # > , ' ) ! ~ ~ { ) ' ] > # @ .               ",
"            . % ^ / ( _ + @ : : : : @ + < [ } | % .             ",
"          . % 1 ' 2 % : 3 3 4 4 4 4 3 3 : % 5 ' 6 % .           ",
"        . @ ^ ' 7 8 3 4 3 @ 9 0 a b c d 3 3 8 e ' | @ .         ",
"      + % # / 2 8 3 4 3 f g h = = i h j k 4 3 8 5 } # % +       ",
"      . . > ( % 3 4 l m n o i i p h q r s t 4 3 % [ > . .       ",
"      . $ ] _ : 4 u v p n w | : 3 u a x y z u 4 : < ] $ .       ",
"    . @ & ' + 3 4 u y o A : t t t t B x C x D 4 3 + ' & @ .     ",
"    . . * ) @ 3 D u E o F u t t z z t B 9 G H D 3 @ ) ; . .     ",
"    . # = ! : 4 u I J p o 2 K > L t x t B G I u 4 : { i # .     ",
"    . $ - ~ : 4 D H u M p o o N O P Q R 9 9 H D 4 : S - $ .     ",
"    . $ - ~ : 4 D H 9 H T U V s W X X Y < I H D 4 : S - $ .     ",
"    . # = ! : 4 u I G B t x x 0 Z L ` X Y  .I u 4 : { i # .     ",
"    . . * ) @ 3 D H G 9 B t z z z z I Y X ..D D 3 @ ) ; . .     ",
"    . @ & ' + 3 4 D O +.@.B t t t t H X X +.u 4 3 + ' & @ .     ",
"      . $ , _ : 4 u #.$.0 b I H D @.%.Y &.*.u 4 : < ] $ .       ",
"      . . > ( % 3 4 k T =.-.-.&.E y X X ;.3 4 3 % [ > . .       ",
"      + % # / 2 8 3 3 u S -.y E y -.>.,.u 4 3 8 5 } # % +       ",
"        . @ ^ ' 7 8 3 4 l : t '.'.9 l 4 4 3 8 e ' | @ .         ",
"          . % 1 ' 2 % : 3 3 4 4 4 4 3 3 : % 5 ' 6 % .           ",
"            . % ^ / ( _ + @ : : : : @ + < [ } | % .             ",
"              . @ # > , ' ) ! ~ ~ { ) ' ] > # @ .               ",
"                . % . $ & * = - - i ; & $ . % .                 ",
"                  + . . @ . # $ $ # . @ . . +                   ",
"                        . . . . . . . .                         ",
"                                                                ",
"                                                                "};
