/* XPM */
static char * slate64_xpm[] = {
"64 64 153 2",
"  	c None",
". 	c #1A1A1A",
"+ 	c #1B1B1B",
"@ 	c #1C1C1C",
"# 	c #1D1D1D",
"$ 	c #191919",
"% 	c #161616",
"& 	c #181818",
"* 	c #4A4A4A",
"= 	c #757575",
"- 	c #959595",
"; 	c #AAAAAA",
"> 	c #B5B5B5",
", 	c #ABABAB",
"' 	c #767676",
") 	c #4B4B4B",
"! 	c #262626",
"~ 	c #808080",
"{ 	c #CECECE",
"] 	c #FFFFFF",
"^ 	c #CFCFCF",
"/ 	c #818181",
"( 	c #272727",
"_ 	c #171717",
": 	c #414141",
"< 	c #BABABA",
"[ 	c #F7F7F7",
"} 	c #DFDFDF",
"| 	c #D4D4D4",
"1 	c #BBBBBB",
"2 	c #424242",
"3 	c #2C2C2C",
"4 	c #BDBDBD",
"5 	c #D7D7D7",
"6 	c #8D8D8D",
"7 	c #505050",
"8 	c #202020",
"9 	c #151515",
"0 	c #4F4F4F",
"a 	c #8C8C8C",
"b 	c #D6D6D6",
"c 	c #BEBEBE",
"d 	c #2D2D2D",
"e 	c #7A7A7A",
"f 	c #999999",
"g 	c #333333",
"h 	c #222222",
"i 	c #212121",
"j 	c #323232",
"k 	c #7B7B7B",
"l 	c #C2C2C2",
"m 	c #9B9B9B",
"n 	c #1F1F1F",
"o 	c #232323",
"p 	c #9A9A9A",
"q 	c #C3C3C3",
"r 	c #252525",
"s 	c #E4E4E4",
"t 	c #E2E2E2",
"u 	c #3A3A3A",
"v 	c #1E1E1E",
"w 	c #242424",
"x 	c #393939",
"y 	c #E1E1E1",
"z 	c #E5E5E5",
"A 	c #EDEDED",
"B 	c #B0B0B0",
"C 	c #AFAFAF",
"D 	c #EEEEEE",
"E 	c #8F8F8F",
"F 	c #8E8E8E",
"G 	c #2B2B2B",
"H 	c #444444",
"I 	c #555555",
"J 	c #5E5E5E",
"K 	c #616161",
"L 	c #474747",
"M 	c #313131",
"N 	c #8B8B8B",
"O 	c #CDCDCD",
"P 	c #C9C9C9",
"Q 	c #C8C8C8",
"R 	c #C7C7C7",
"S 	c #C6C6C6",
"T 	c #CCCCCC",
"U 	c #A4A4A4",
"V 	c #797979",
"W 	c #434343",
"X 	c #7C7C7C",
"Y 	c #C4C4C4",
"Z 	c #CACACA",
"` 	c #6A6A6A",
" .	c #343434",
"..	c #C5C5C5",
"+.	c #BFBFBF",
"@.	c #B8B8B8",
"#.	c #6D6D6D",
"$.	c #404040",
"%.	c #2F2F2F",
"&.	c #636363",
"*.	c #828282",
"=.	c #3B3B3B",
"-.	c #2A2A2A",
";.	c #292929",
">.	c #989898",
",.	c #7F7F7F",
"'.	c #373737",
").	c #707070",
"!.	c #3D3D3D",
"~.	c #2E2E2E",
"{.	c #282828",
"].	c #515151",
"^.	c #656565",
"/.	c #3F3F3F",
"(.	c #F8F8F8",
"_.	c #CBCBCB",
":.	c #AEAEAE",
"<.	c #303030",
"[.	c #F6F6F6",
"}.	c #969696",
"|.	c #E0E0E0",
"1.	c #C0C0C0",
"2.	c #595959",
"3.	c #ACACAC",
"4.	c #D5D5D5",
"5.	c #3E3E3E",
"6.	c #484848",
"7.	c #606060",
"8.	c #D3D3D3",
"9.	c #B6B6B6",
"0.	c #7D7D7D",
"a.	c #BCBCBC",
"b.	c #545454",
"c.	c #5F5F5F",
"d.	c #737373",
"e.	c #848484",
"f.	c #5B5B5B",
"g.	c #777777",
"h.	c #727272",
"i.	c #353535",
"j.	c #494949",
"k.	c #676767",
"l.	c #B2B2B2",
"m.	c #4C4C4C",
"n.	c #9C9C9C",
"o.	c #363636",
"p.	c #838383",
"q.	c #575757",
"r.	c #3C3C3C",
"s.	c #787878",
"t.	c #6C6C6C",
"u.	c #464646",
"v.	c #141414",
"                                                                                                                                ",
"                                                                                                                                ",
"                                                                                                                                ",
"                                                                                                                                ",
"                                                    . + . + + + + + + . + +                                                     ",
"                                            . + + + + @ @ @ + @ @ + @ @ @ + + + + .                                             ",
"                                        . + + + + @ @ @ # @ @ @ @ @ @ # @ @ @ + + + + .                                         ",
"                                    . + + @ @ @ # # # # # # . $ $ . # # # # # # @ @ @ + + .                                     ",
"                                . + + @ @ @ # # # % & * = - ; > > , - ' ) & % # # # @ @ @ + + .                                 ",
"                              . + + @ @ # # $ ! ~ { ] ] ] ] ] ] ] ] ] ] ] ] ^ / ( & # # @ @ + + .                               ",
"                            . + @ @ # # _ : < ] ] ] ] ] ] [ } | | } [ ] ] ] ] ] ] 1 2 _ # # @ @ + .                             ",
"                          + + @ @ # @ 3 4 ] ] ] ] 5 6 7 8 9 & $ $ & 9 8 0 a b ] ] ] ] c d @ # @ @ + +                           ",
"                        + + @ @ # 9 e ] ] ] ] f g & 8 h i h h h h h h i h 8 $ j f ] ] ] ] k 9 # @ @ + +                         ",
"                      + + @ @ # + l ] ] ] m i n h h h h h h o o o o h h h h h h n i p ] ] ] q @ # @ @ + +                       ",
"                    . + @ @ # r s ] ] t u v h h h h o o w w w w w w w w o o h h h h v x y ] ] z r # @ @ + .                     ",
"                  . + @ @ # r A ] ] B . i h h o o w w w w r w w w w r w w w w o o h h i . C ] ] D r # @ @ + .                   ",
"                . + @ @ # + s ] ] E $ i h h o w w w w r r r ! ! ! ! r r r w w w w o h h i $ F ] ] z @ # @ @ + .                 ",
"                + + @ # 9 l ] ] E + i h o o w w r r o # G H I J K J I L M # 8 w w w o o h i + 6 ] ] q 9 # @ + +                 ",
"              . + @ # @ e ] ] B $ i h o o w w r v ) N 1 O P Q R S R Q P T S U V W w w o o h i $ C ] ] X @ # @ + .               ",
"              + @ @ # 3 ] ] t . i h o o w r r x , P Y Y Y Y Y Y Y Y Y Y Y Y Y Z : r r w o o h i . y ] ] d # @ @ +               ",
"            . + @ # _ 4 ] ] u i h o o w r r L Q Y Y Y Y Y Y Y Y Y Y Y Y Y Y R ` r  .M r w o o h i x ] ] c _ # @ + .             ",
"            + @ @ # : ] ] m v h h o w r r G Y Y Y Y Y Y ..Z O Y +.l T T P S m h ! e u r r w o h h v p ] ] 2 # @ @ +             ",
"          . + @ # $ < ] ] i h h o w w r r ~ Y Y Y Y ..@.#.$.r h o h h %.L ` d r &.*.=.! r w w o h h i ] ] 1 & # @ + .           ",
"          + + @ # ! ] ] f n h o w w r ! v c Y Y Y Y f r G G 3 3 3 3 G G -.-.;.) *.*.=.! ! r w w o h n >.] ] ( # @ + +           ",
"          + + # # ,.] ] g h h o w r r ! %.T Y Y Y Q -.G 3 3 d 3 3 d 3 3 G G -.'.0 ).!.( ! r r w o h h j ] ] / # # + +           ",
"          + @ # % { ] 5 & h h w w r ! ( !.Z Y Y Y ; ! 3 3 d d ~.~.d d 3 3 G G -.-.! ( ( ( ! r w w h h $ b ] ^ % # @ +           ",
"        . + @ # & ] ] 6 8 h o w w ! ! ( !.Z Y Y Y C r d d ~.~.~.~.~.~.d d 3 G G -.;.;.{.( ! ! w w o h 8 a ] ] $ # @ + +         ",
"        + @ @ # * ] ] ].h h o w r ! ! ( G O Y Y Y Z =.d ~.~.%.%.%.%.~.~.d d 3 G -.-.;.{.( ! ! r w o h h 0 ] ] ) # @ @ +         ",
"        . @ # # = ] ] 8 i h w w r ! ( ( i @.Y Y Y Y 1 ^.W /.$.$.:  .%.%.~.d 3 3 G -.;.;.( ( ! r w w h i n ] ] ' # # @ .         ",
"        + @ @ # - ] (.9 h h w r r ! ( {.{.k ..Y Y Y Y S Z _.Z Z :.d <.%.%.~.d 3 G G ;.;.{.( ! r r w h h 9 [.] }.# @ @ +         ",
"        + + @ . ; ] |.& h o w w ! ! ( {.;.G 1.Y Y Y Y Y Y Y Y l '.%.].2.7 : G G 3 -.-.;.{.( ! ! w w o h & } ] 3.. @ + +         ",
"        + @ @ $ > ] 4.$ h o w w ! ! ( {.;.-.5.+...Y Y Y Y Y Z I j 6.*.,.~ / / 7.<.G -.;.{.( ! ! w w o h $ 8.] 9.$ @ @ +         ",
"        + @ @ $ > ] 4.$ h o w w ! ! ( {.;.-.G 3 0.a._.Q R Q *.%.'.,.,.,.,.,.,.,.,.u -.;.{.( ! ! w w o h $ 8.] 9.$ @ @ +         ",
"        + + @ . ; ] |.& h o w w ! ! ( {.;.-.-.3 G r =.b.c.&.~.%.d.,.,.,.,.,.,.,.,.,.d ;.{.( ! ! w w o h & } ] 3.. @ + +         ",
"        + @ @ # - ] (.9 h h w r r ! ( {.;.;.G G 3 d ~.~.%.<.%.J / / / e./ ,.,.,.,.,.f.{.{.( ! r r w h h 9 [.] }.# @ @ +         ",
"        . @ # # = ] ] 8 i h w w r ! ( ( ;.;.-.G 3 3 d ~.%.%.<.d 3 G G d W g.,.,.,.,.X w ( ( ! r w w h i n ] ] ' # # @ .         ",
"        + @ @ # * ] ] ].h h o w r ! ! ( {.;.-.-.G 3 d d ~.~.%.%.%.%.~.~.d M *.,.,.,.e.3 ( ! ! r w o h h 0 ] ] ) # @ @ +         ",
"        . + @ # & ] ] 6 8 h o w w ! ! ( {.{.;.-.G G 3 d d ~.~.~.~.~.~.d d ;.h.,.,.,.*.i.( ! ! w w o h 8 a ] ] $ # @ + +         ",
"          + @ # % { ] 5 & h h w w r ! ( ( ! o -.-.G G 3 3 d d ~.~.d d 3 3 {.h.,.,.,.*. .( ! r w w h h $ b ] ^ % # @ +           ",
"          + + # # ,.] ] g h h o w r r ! ( 0 3.h.j.;.G G 3 3 d 3 3 d 3 3 G 3 *.,.,.,.e.-.! r r w o h h j ] ] / # # + +           ",
"          + + @ # ! ] ] p n h o w w r ! ! ) P S F ( -.-.G G 3 3 3 3 G G ( k.,.,.,.,.e i ! r w w o h n >.] ] ( # @ + +           ",
"          . + @ # $ < ] ] i h h o w w r ! ) Q l.w ! m.!.<.( ! ( ( ! M j.= ~ ,.,.,.,.2.r r w w o h h i ] ] 1 & # @ + .           ",
"            + @ @ # : ] ] n.v h h o w r r ) T o.( ]./ *.p.e.~ 0.0.p.p.~ ,.,.,.,.,.~ ;.r r w o h h v p ] ] 2 # @ @ +             ",
"            . + @ # _ 4 ] ] u i h o o w r '.q.! o.*.,.,.,.,.,.,.,.,.,.,.,.,.,.,.*.r.r r w o o h i x ] ] c _ # @ + .             ",
"              + @ @ # 3 ] ] t . i h o o w r w ( k ,.,.,.,.,.,.,.,.,.,.,.,.,./ s.i.w r w o o h i . y ] ] d # @ @ +               ",
"              . + @ # @ e ] ] B $ i h o o w w M I t.,.e.*./ / ~ ~ / *.p.~ k.W h r w w o o h i $ C ] ] X @ # @ + .               ",
"                + + @ # 9 l ] ] E + i h o o w w w h i -.o.5.H u.L W r.%.i o r r w w o o h i + F ] ] q 9 # @ + +                 ",
"                . + @ @ # + s ] ] E $ i h h o w w w w r r r ! ! ! ! r r r w w w w o h h i $ F ] ] z @ # @ @ + .                 ",
"                  . + @ @ # r A ] ] B . i h h o o w w w w r w w w w r w w w w o o h h i . C ] ] D r # @ @ + .                   ",
"                    . + @ @ # r s ] ] t u v h h h h o o w w w w w w w w o o h h h h v x y ] ] z r # @ @ + .                     ",
"                      + + @ @ # + l ] ] ] m i n h h h h h h o o o o h h h h h h n i p ] ] ] q @ # @ @ + +                       ",
"                        + + @ @ # 9 e ] ] ] ] f g & 8 h i h h h h h h i h 8 & j f ] ] ] ] k v.# @ @ + +                         ",
"                          + + @ @ # @ 3 4 ] ] ] ] 5 6 7 8 9 & $ $ & 9 8 7 6 b ] ] ] ] 4 d @ # @ @ + +                           ",
"                            . + @ @ # # _ : < ] ] ] ] ] ] (.} | | |.[ ] ] ] ] ] ] 1 2 _ # # @ @ + .                             ",
"                              . + + @ @ # # $ ! ~ { ] ] ] ] ] ] ] ] ] ] ] ] ^ / ( & # # @ @ + + .                               ",
"                                . + + @ @ @ # # # % & * = - ; > > , }.' ) & % # # # @ @ @ + + .                                 ",
"                                    . + + @ @ @ # # # # # # . $ $ . # # # # # # @ @ @ + + .                                     ",
"                                        . + + + + @ @ @ # @ @ @ @ @ @ # @ @ @ + + + + .                                         ",
"                                            . + + + + @ @ @ + @ @ + @ @ @ + + + + .                                             ",
"                                                    . + . + + + + + + . + +                                                     ",
"                                                                                                                                ",
"                                                                                                                                ",
"                                                                                                                                ",
"                                                                                                                                "};
