/* XPM */
static char * slate16_xpm[] = {
"16 16 59 1",
" 	c None",
".	c #1B1B1B",
"+	c #161616",
"@	c #121212",
"#	c #141414",
"$	c #6E6E6E",
"%	c #BEBEBE",
"&	c #B9B9B9",
"*	c #BFBFBF",
"=	c #6F6F6F",
"-	c #1D1D1D",
";	c #CBCBCB",
">	c #686868",
",	c #1C1C1C",
"'	c #2C2C2C",
")	c #202020",
"!	c #5B5B5B",
"~	c #818181",
"{	c #858585",
"]	c #737373",
"^	c #242424",
"/	c #222222",
"(	c #808080",
"_	c #C0C0C0",
":	c #7C7C7C",
"<	c #777777",
"[	c #6D6D6D",
"}	c #494949",
"|	c #AAAAAA",
"1	c #282828",
"2	c #2D2D2D",
"3	c #2B2B2B",
"4	c #303030",
"5	c #262626",
"6	c #1E1E1E",
"7	c #252525",
"8	c #7E7E7E",
"9	c #C8C8C8",
"0	c #ACACAC",
"a	c #444444",
"b	c #424242",
"c	c #272727",
"d	c #4E4E4E",
"e	c #4A4A4A",
"f	c #6C6C6C",
"g	c #5A5A5A",
"h	c #363636",
"i	c #2E2E2E",
"j	c #505050",
"k	c #717171",
"l	c #232323",
"m	c #4D4D4D",
"n	c #555555",
"o	c #565656",
"p	c #595959",
"q	c #131313",
"r	c #212121",
"s	c #515151",
"t	c #464646",
"                ",
"     .+@@+.     ",
"    #$%&&*=#    ",
"   -;>+-,+>;-   ",
"  #;')!~{]^';#  ",
" .=>/(_:<[}^>=. ",
" +%+)|$12345+*+ ",
" @&67890ab1c6&@ ",
" @&6c5def~g56&@ ",
" +%+5h'i3jkl+*+ ",
" .=>l=mno:pl>=. ",
"  q;'rs!gt/';#  ",
"   -;>+--+>;-   ",
"    #$%&&*=#    ",
"     .+@@+.     ",
"                "};
