<?xml version="1.0" encoding="utf-8"?>

<!DOCTYPE svg PUBLIC "-//W3C//DTD SVG 1.1//EN" "http://www.w3.org/Graphics/SVG/1.1/DTD/svg11.dtd">
<svg version="1.1"
   id="svg2" sodipodi:docname="slate-logo.svg" inkscape:version="0.92.2 5c3e80d, 2017-08-06" xmlns:dc="http://purl.org/dc/elements/1.1/" xmlns:cc="http://creativecommons.org/ns#" xmlns:rdf="http://www.w3.org/1999/02/22-rdf-syntax-ns#" xmlns:svg="http://www.w3.org/2000/svg" xmlns:sodipodi="http://sodipodi.sourceforge.net/DTD/sodipodi-0.dtd" xmlns:inkscape="http://www.inkscape.org/namespaces/inkscape"
   xmlns="http://www.w3.org/2000/svg" xmlns:xlink="http://www.w3.org/1999/xlink" x="0px" y="0px" width="1024px" height="1024px"
   viewBox="-34 -34 580 580" enable-background="new 0 0 1024 1024" xml:space="preserve">

	 <radialGradient id="coinShape" cx="256.02759" cy="256.00269" r="255.98779" gradientUnits="userSpaceOnUse">
      <stop offset="0" style="stop-color:#333333" id="stop11" />
      <stop offset="1" style="stop-color:#1A1A1A" id="stop13" />
	 </radialGradient>
  
	 <circle cx="256.02759" cy="256.00269" r="255.98779" fill="url(#coinShape)" />
  
	 <path fill="#ffffff" d="m 256.02759,41.592965 c -118.40278,0 -214.409725,96.006945 -214.409725,214.409725 0,118.40278 96.006945,214.40972
      214.409725,214.40972 118.40277,0 214.40972,-96.00694 214.40972,-214.40972 0,-118.40278 -96.00695,-214.409725 -214.40972,-214.409725 z m 0,406.857645
      c -106.25,0 -192.447923,-86.19792 -192.447923,-192.44792 0,-106.25 86.197923,-192.447918 192.447923,-192.447918 106.25,0 192.44791,86.197918
      192.44791,192.447918 0,106.25 -86.19791,192.44792 -192.44791,192.44792 z" />
     
	 <g transform="matrix(0.86805557,0,0,0.86805557,38.362654,39.162404)">
      <path fill="#7f7f7f" d="m 357.8,130 c -1.2,-0.4 -2.5,-0.8 -3.7,-1.1 l -28.6,38.5 c 11,2.4 21.7,5.7 32.3,9.5 z m -81.5,103.7 -34.8,47 h 34.7
         c 26.3,0 39.5,10.4 39.5,31.3 0,28.7 -21.4,43.1 -64.3,43.1 -21.6,0 -41.8,-1.9 -60.7,-5.9 l -28.8,38.9 c 26.6,8 56.5,11.9 89.5,11.9 77.5,0 116.2,-29.3
         116.2,-88 0,-52.1 -30.4,-78.2 -91.3,-78.3 z" />
      <path fill="#c4c4c4" d="m 143.6,322.5 c 10.9,4.1 22.4,7.3 34.4,9.8 l -28.8,38.9 c -1.9,-0.5 -3.8,-1.1 -5.6,-1.7 z" />
      <path fill="#c4c4c4" d="m 185.7,185.6 c 0,20.9 11.4,31.3 34,31.3 h 44 l -34.8,47 h -9.1 c -57.3,0 -85.9,-26.1 -85.9,-78.2 0,-57.4 40.8,-86.1 122.3,-86.1
         29.9,0 58.4,4.2 85.3,12.5 l -28.6,38.5 c -18.3,-4.1 -37.2,-6.1 -56.7,-6.1 -47,0 -70.5,13.7 -70.5,41.1 z" />
	 </g>
</svg>
