<?xml version="1.0" encoding="utf-8"?>
<!-- Generator: Adobe Illustrator 22.0.1, SVG Export Plug-In . SVG Version: 6.00 Build 0)  -->
<svg version="1.1" id="Layer_1" xmlns="http://www.w3.org/2000/svg" xmlns:xlink="http://www.w3.org/1999/xlink" x="0px" y="0px"
	 viewBox="0 0 500 500" style="enable-background:new 0 0 500 500;" xml:space="preserve">
<style type="text/css">
	.st0{display:none;fill:url(#SVGID_1_);}
	.st1{fill:#1A1A1A;}
	.st2{fill:#7F7F7F;}
	.st3{fill:#C4C4C4;}
</style>
<radialGradient id="SVGID_1_" cx="252.5" cy="250.5" r="250.5" gradientUnits="userSpaceOnUse">
	<stop  offset="0" style="stop-color:#3A3A3A"/>
	<stop  offset="1" style="stop-color:#000000"/>
</radialGradient>
<path class="st0" d="M491,501H14c-6.6,0-12-5.4-12-12V12C2,5.4,7.4,0,14,0h477c6.6,0,12,5.4,12,12v477C503,495.6,497.6,501,491,501z
	"/>
<path class="st1" d="M252.4,86c-90.9,0-164.6,73.7-164.6,164.6s73.7,164.6,164.6,164.6S417,341.4,417,250.6S343.3,86,252.4,86z
	 M252.4,398.2c-81.5,0-147.7-66.1-147.7-147.7s66.1-147.7,147.7-147.7S400.1,169,400.1,250.6S334,398.2,252.4,398.2z"/>
<g>
	<path class="st2" d="M271.3,233.7L248.1,265h23.1c17.6,0,26.3,6.9,26.3,20.8c0,19.1-14.3,28.7-42.9,28.7c-14.4,0-27.8-1.3-40.4-3.9
		L195,336.5c17.8,5.3,37.6,8,59.6,8c51.6,0,77.4-19.6,77.4-58.7C332.1,251.1,311.8,233.8,271.3,233.7z"/>
	<path class="st2" d="M324,166.6v31.3c-7-2.6-14.2-4.7-21.5-6.3l19-25.7C322.3,166.1,323.2,166.4,324,166.6z"/>
	<path class="st3" d="M182,300.9c7.3,2.7,14.9,4.9,22.9,6.5l-19.2,25.9c-1.3-0.4-2.5-0.8-3.7-1.2V300.9z"/>
	<path class="st3" d="M207.9,211.6c0,13.9,7.6,20.8,22.7,20.8h29.3l-23.2,31.3h-6.1c-38.1,0-57.2-17.4-57.2-52.1
		c0-38.2,27.2-57.4,81.5-57.4c19.9,0,38.9,2.8,56.8,8.4l-19,25.7c-12.2-2.7-24.8-4.1-37.8-4.1C223.6,184.3,207.9,193.4,207.9,211.6z
		"/>
</g>
</svg>
